<svg width="400" height="400" viewBox="0 0 400 400" fill="none" xmlns="http://www.w3.org/2000/svg">
<rect width="400" height="400" rx="200" fill="black"/>
<path d="M147.691 235.95L105.499 278.143C99.4717 270.824 94.3053 262.643 90 254.033C99.0411 241.978 104.638 227.34 106.791 211.41C107.221 207.535 107.652 203.661 107.652 199.786C107.652 195.911 107.221 192.036 106.791 188.161C104.638 172.662 99.0411 158.024 90 145.539C94.3053 136.928 99.4717 128.748 105.499 121.429L147.691 163.621C142.955 170.94 139.08 179.12 137.789 187.731C136.928 191.606 136.928 195.481 136.928 199.355C136.928 203.23 137.358 207.105 137.789 210.98C139.511 220.451 142.955 228.631 147.691 235.95Z" fill="white"/>
<path d="M278.142 294.501C270.823 300.528 262.643 305.695 254.032 310C241.978 300.959 227.34 295.362 211.41 293.209C207.535 292.779 203.66 292.348 199.786 292.348C195.911 292.348 192.036 292.779 188.161 293.209C172.662 295.362 158.024 300.959 145.539 310C136.928 305.695 128.748 300.528 121.429 294.501L163.621 252.309C170.94 257.045 179.12 260.919 187.731 262.211C191.606 263.072 195.48 263.072 199.355 263.072C203.23 263.072 207.105 262.642 210.979 262.211C220.02 260.489 228.201 257.045 235.089 252.309L278.142 294.501Z" fill="white"/>
<path d="M293.21 188.16C292.779 192.035 292.349 195.91 292.349 199.785C292.349 203.659 292.779 207.534 293.21 211.409C295.363 226.908 300.959 241.546 310.001 254.032C305.695 262.642 300.529 270.822 294.501 278.141L252.31 235.949C257.476 228.63 260.92 220.45 262.212 211.839C263.073 207.965 263.073 204.09 263.073 200.215C263.073 196.34 262.642 192.466 262.212 188.591C260.49 179.55 257.045 171.37 252.31 164.481L294.501 122.289C300.529 129.608 305.695 137.788 310.001 146.399C301.39 158.023 295.363 172.661 293.21 188.16Z" fill="white"/>
<path d="M278.142 105.499L235.95 147.691C228.631 142.955 220.451 139.081 211.84 137.789C207.965 136.928 204.091 136.928 200.216 136.928C196.341 136.928 192.466 137.358 188.591 137.789C179.55 139.511 171.37 142.955 164.482 147.691L122.29 105.499C129.609 99.4717 137.789 94.3053 146.4 90C158.454 99.0411 173.092 104.638 189.022 106.791C192.897 107.221 196.772 107.652 200.646 107.652C204.521 107.652 208.396 107.221 212.271 106.791C227.77 104.638 242.408 99.0411 254.893 90C263.073 94.3053 270.823 99.4717 278.142 105.499Z" fill="white"/>
<path d="M240.685 199.784C240.685 203.659 240.255 207.534 238.963 211.409C238.102 213.992 237.241 216.575 235.95 218.728C232.075 225.616 226.478 231.213 219.589 235.088C217.437 236.38 214.854 237.24 212.27 238.102C208.396 239.393 204.521 239.824 200.646 239.824C196.771 239.824 192.896 239.393 189.022 238.102C186.439 237.24 183.855 236.38 181.703 235.088C174.814 231.213 168.787 225.616 165.343 218.728C164.051 216.575 163.19 213.992 162.329 211.409C161.037 207.534 160.607 203.659 160.607 199.784C160.607 195.91 161.037 192.035 162.329 188.16C163.19 185.577 164.051 182.994 165.343 180.841C169.217 173.952 174.814 168.356 181.703 164.481C183.855 163.189 186.439 162.328 189.022 161.467C192.896 160.175 196.771 159.745 200.646 159.745C204.521 159.745 208.396 160.175 212.27 161.467C214.854 162.328 217.437 163.189 219.589 164.481C226.478 168.356 232.505 173.952 235.95 180.841C237.241 182.994 238.102 185.577 238.963 188.16C239.824 192.035 240.685 195.91 240.685 199.784Z" fill="white"/>
</svg>
